# xmcd
#
# Track frame offsets:
#	150
#	18079
#	34249
#	51792
#	66497
#	79686
#	98023
#	110132
#	125433
#	139804
#	159198
#	176324
#	190896
#	205839
#
# Disc length: 2984 seconds
#
# Revision: 0
# Processed by: cddbd v1.5.1PL0 Copyright (c) Steve Scherf et al.
# Submitted via: audiograbber 1.83.01
#
DISCID=b80ba60e
DTITLE=Δημήτρης Μητροπάνος - Εντελβάις
DYEAR=1999
DGENRE=Other
TTITLE0=Ανεπίδοτο
TTITLE1=Σαββατόβραδο
TTITLE2=Εντελβάις
TTITLE3=ΚΙΦ
TTITLE4=Μ'ένα τσιγάρο σέρτικο
TTITLE5=Ουμ χαράμ
TTITLE6=Δρομολόγιο
TTITLE7=Είδα
TTITLE8=Σαν κατάδικος δραπέτης
TTITLE9=’νοιξη
TTITLE10=Αμανές
TTITLE11=Πυρετός
TTITLE12=Θρίλερ
TTITLE13=Με το φιλί του μελτεμιού
EXTD=
EXTT0=
EXTT1=
EXTT2=
EXTT3=
EXTT4=
EXTT5=
EXTT6=
EXTT7=
EXTT8=
EXTT9=
EXTT10=
EXTT11=
EXTT12=
EXTT13=
PLAYORDER=
